<svg width="22" height="22" viewBox="0 0 22 22" fill="none" xmlns="http://www.w3.org/2000/svg">
<path d="M8.14683 2.78116C9.04489 0.0172248 12.9551 0.0172229 13.8532 2.78115L14.3677 4.36474C14.7693 5.60081 15.9212 6.43769 17.2209 6.43769H18.886C21.7921 6.43769 23.0005 10.1565 20.6493 11.8647L19.3022 12.8435C18.2508 13.6074 17.8108 14.9615 18.2124 16.1976L18.727 17.7811C19.625 20.5451 16.4616 22.8435 14.1104 21.1353L12.7634 20.1565C11.7119 19.3926 10.2881 19.3926 9.23664 20.1565L7.88956 21.1353C5.53842 22.8435 2.37498 20.5451 3.27304 17.7812L3.78757 16.1976C4.1892 14.9615 3.74922 13.6074 2.69776 12.8435L1.35068 11.8647C-1.00046 10.1565 0.207867 6.43769 3.11404 6.43769H4.77912C6.0788 6.43769 7.23067 5.60081 7.63229 4.36475L8.14683 2.78116Z" fill="#D9D9D9"/>
</svg>
