<svg width="197" height="36" viewBox="0 0 197 36" fill="none" xmlns="http://www.w3.org/2000/svg">
<path d="M15.1468 8.78116C16.0449 6.01722 19.9551 6.01722 20.8532 8.78115L21.3677 10.3647C21.7693 11.6008 22.9212 12.4377 24.2209 12.4377H25.886C28.7921 12.4377 30.0005 16.1565 27.6493 17.8647L26.3022 18.8435C25.2508 19.6074 24.8108 20.9615 25.2124 22.1976L25.727 23.7811C26.625 26.5451 23.4616 28.8435 21.1104 27.1353L19.7634 26.1565C18.7119 25.3926 17.2881 25.3926 16.2366 26.1565L14.8896 27.1353C12.5384 28.8435 9.37498 26.5451 10.273 23.7812L10.7876 22.1976C11.1892 20.9615 10.7492 19.6074 9.69776 18.8435L8.35068 17.8647C5.99954 16.1565 7.20787 12.4377 10.114 12.4377H11.7791C13.0788 12.4377 14.2307 11.6008 14.6323 10.3647L15.1468 8.78116Z" fill="#D9D9D9"/>
<path d="M55.3006 8.78116C56.1987 6.01722 60.1089 6.01722 61.007 8.78115L61.5215 10.3647C61.9231 11.6008 63.075 12.4377 64.3747 12.4377H66.0398C68.9459 12.4377 70.1543 16.1565 67.8031 17.8647L66.456 18.8435C65.4046 19.6074 64.9646 20.9615 65.3662 22.1976L65.8808 23.7811C66.7788 26.5451 63.6154 28.8435 61.2642 27.1353L59.9172 26.1565C58.8657 25.3926 57.4419 25.3926 56.3905 26.1565L55.0434 27.1353C52.6922 28.8435 49.5288 26.5451 50.4268 23.7812L50.9414 22.1976C51.343 20.9615 50.903 19.6074 49.8516 18.8435L48.5045 17.8647C46.1533 16.1565 47.3617 12.4377 50.2678 12.4377H51.9329C53.2326 12.4377 54.3845 11.6008 54.7861 10.3647L55.3006 8.78116Z" fill="#D9D9D9"/>
<path d="M95.4544 8.78116C96.3525 6.01722 100.263 6.01722 101.161 8.78116L101.675 10.3647C102.077 11.6008 103.229 12.4377 104.528 12.4377H106.194C109.1 12.4377 110.308 16.1565 107.957 17.8647L106.61 18.8435C105.558 19.6074 105.118 20.9615 105.52 22.1976L106.035 23.7811C106.933 26.5451 103.769 28.8435 101.418 27.1353L100.071 26.1565C99.0195 25.3926 97.5957 25.3926 96.5443 26.1565L95.1972 27.1353C92.846 28.8435 89.6826 26.5451 90.5807 23.7812L91.0952 22.1976C91.4968 20.9615 91.0568 19.6074 90.0054 18.8435L88.6583 17.8647C86.3072 16.1565 87.5155 12.4377 90.4217 12.4377H92.0867C93.3864 12.4377 94.5383 11.6008 94.9399 10.3647L95.4544 8.78116Z" fill="#D9D9D9"/>
<path d="M135.608 8.78116C136.506 6.01722 140.417 6.01722 141.315 8.78115L141.829 10.3647C142.231 11.6008 143.383 12.4377 144.682 12.4377H146.347C149.254 12.4377 150.462 16.1565 148.111 17.8647L146.764 18.8435C145.712 19.6074 145.272 20.9615 145.674 22.1976L146.188 23.7811C147.086 26.5451 143.923 28.8435 141.572 27.1353L140.225 26.1565C139.173 25.3926 137.75 25.3926 136.698 26.1565L135.351 27.1353C133 28.8435 129.836 26.5451 130.734 23.7812L131.249 22.1976C131.651 20.9615 131.211 19.6074 130.159 18.8435L128.812 17.8647C126.461 16.1565 127.669 12.4377 130.575 12.4377H132.241C133.54 12.4377 134.692 11.6008 135.094 10.3647L135.608 8.78116Z" fill="#D9D9D9"/>
<path d="M175.762 8.78116C176.66 6.01722 180.57 6.01722 181.468 8.78116L181.983 10.3647C182.385 11.6008 183.536 12.4377 184.836 12.4377H186.501C189.407 12.4377 190.616 16.1565 188.265 17.8647L186.917 18.8435C185.866 19.6074 185.426 20.9615 185.828 22.1976L186.342 23.7811C187.24 26.5451 184.077 28.8435 181.726 27.1353L180.379 26.1565C179.327 25.3926 177.903 25.3926 176.852 26.1565L175.505 27.1353C173.154 28.8435 169.99 26.5451 170.888 23.7812L171.403 22.1976C171.804 20.9615 171.364 19.6074 170.313 18.8435L168.966 17.8647C166.615 16.1565 167.823 12.4377 170.729 12.4377H172.394C173.694 12.4377 174.846 11.6008 175.248 10.3647L175.762 8.78116Z" fill="#D9D9D9"/>
</svg>
